<?xml version="1.0" standalone="no"?>
<!DOCTYPE svg PUBLIC "-//W3C//DTD SVG 20010904//EN"
 "http://www.w3.org/TR/2001/REC-SVG-20010904/DTD/svg10.dtd">
<svg version="1.0" xmlns="http://www.w3.org/2000/svg"
 width="16.000000pt" height="16.000000pt" viewBox="0 0 16.000000 16.000000"
 preserveAspectRatio="xMidYMid meet">
<metadata>
Created by potrace 1.11, written by Peter Selinger 2001-2013
</metadata>
<g transform="translate(0.000000,16.000000) scale(0.002286,-0.002286)"
fill="#000000" stroke="none">
<path d="M3298 6715 c-1 -1 -42 -6 -90 -9 -48 -3 -93 -8 -100 -10 -7 -3 -35
-7 -63 -10 -287 -32 -686 -156 -980 -303 -442 -223 -834 -548 -1127 -934 -362
-478 -579 -1028 -642 -1629 -13 -122 -14 -543 -1 -640 47 -375 119 -652 246
-948 391 -913 1196 -1604 2149 -1848 187 -47 360 -78 525 -91 178 -15 529 -9
684 12 20 3 50 7 66 9 366 49 770 187 1113 380 147 82 385 246 468 321 6 5 36
30 65 55 177 148 399 398 551 620 270 394 467 901 524 1345 3 22 7 49 9 60 26
128 27 613 1 805 -5 36 -19 121 -21 130 0 3 -5 28 -9 55 -23 149 -100 420
-167 587 -46 116 -148 331 -204 428 -68 118 -237 367 -265 390 -3 3 -13 15
-22 28 -49 73 -294 326 -413 427 -440 376 -967 625 -1535 725 -58 10 -132 22
-165 25 -33 4 -73 9 -90 11 -36 6 -502 14 -507 9z m482 -428 c14 -2 54 -8 90
-12 36 -4 74 -9 85 -11 18 -4 86 -17 160 -31 54 -9 268 -74 365 -110 80 -29
367 -165 435 -206 462 -276 823 -655 1066 -1122 37 -71 82 -166 99 -210 18
-44 38 -93 45 -110 40 -95 104 -328 129 -470 3 -16 8 -39 10 -50 35 -185 42
-608 12 -820 -10 -71 -24 -157 -31 -190 -8 -33 -16 -71 -18 -85 -19 -108 -124
-409 -154 -442 -40 -45 -55 -47 -384 -52 -173 -2 -350 -9 -394 -15 -44 -7 -98
-14 -120 -16 -22 -3 -60 -9 -85 -15 -25 -5 -56 -12 -70 -14 -103 -17 -355 -98
-496 -159 -83 -36 -311 -151 -374 -189 -201 -122 -432 -301 -599 -465 -29 -29
-58 -53 -64 -53 -5 0 -46 35 -91 78 -69 66 -133 120 -293 250 -36 29 -265 181
-323 214 -343 196 -716 324 -1056 363 -33 4 -70 9 -84 11 -14 3 -164 7 -335
11 -331 5 -343 7 -383 58 -26 32 -95 228 -132 370 -31 119 -37 148 -54 260 -4
28 -10 61 -12 75 -26 167 -26 573 1 750 15 96 60 311 77 369 10 36 21 73 23
81 32 126 167 431 267 600 358 607 959 1068 1648 1264 181 51 314 76 500 92
41 4 77 8 79 10 5 4 431 -4 461 -9z m-2020 -4462 c19 -2 76 -7 125 -10 50 -4
101 -8 115 -11 20 -3 148 -21 280 -39 46 -7 315 -65 365 -80 352 -101 560
-190 735 -312 87 -61 113 -61 210 4 137 91 276 160 455 224 87 32 341 105 392
114 18 3 61 12 95 20 35 8 79 17 98 20 19 3 60 10 90 15 76 13 123 19 178 25
26 3 63 7 82 10 19 2 69 7 110 11 41 3 93 7 115 10 22 2 154 6 293 9 201 4
252 2 246 -8 -51 -85 -289 -339 -432 -460 -363 -307 -811 -525 -1257 -611
-131 -25 -149 -28 -320 -45 -73 -8 -455 -6 -515 2 -97 13 -139 19 -165 23 -16
3 -46 7 -64 10 -19 2 -51 9 -70 14 -20 5 -67 17 -106 26 -434 101 -906 361
-1240 683 -126 121 -282 297 -319 358 -6 10 42 12 231 8 131 -3 254 -7 273
-10z"/>
<path d="M4043 5630 c-194 -51 -414 -182 -612 -365 -70 -64 -189 -187 -236
-245 -20 -25 -45 -55 -56 -68 -105 -123 -293 -425 -374 -597 -15 -33 -38 -82
-51 -109 -13 -28 -24 -55 -24 -60 0 -6 -7 -24 -16 -41 -8 -16 -35 -90 -60
-162 -144 -433 -168 -801 -73 -1078 91 -262 273 -476 504 -593 63 -31 167 -68
220 -78 103 -19 141 -22 240 -19 461 14 847 355 939 830 14 73 16 317 4 365
-3 8 -10 42 -17 75 -16 77 -72 207 -134 315 -224 387 -329 716 -329 1030 0
259 67 444 224 617 26 29 48 57 49 61 0 4 2 18 4 32 3 31 -18 74 -47 94 -29
20 -66 19 -155 -4z m-325 -1286 c31 -21 28 -60 -8 -114 -107 -160 -102 -374
13 -631 34 -74 94 -172 173 -279 113 -154 158 -288 149 -441 -25 -429 -450
-689 -820 -502 -76 39 -193 163 -238 253 -63 125 -77 200 -73 380 2 85 7 171
11 190 27 144 48 230 80 325 122 364 358 685 589 801 77 38 92 41 124 18z"/>
<path d="M4273 4912 c-28 -15 -90 -58 -138 -95 -97 -77 -93 -58 -56 -211 68
-283 160 -522 247 -639 l16 -22 -6 25 c-10 41 -20 160 -19 235 1 205 37 400
99 530 46 97 44 144 -10 187 -30 25 -74 22 -133 -10z"/>
</g>
</svg>
