<svg width="200px" height="200px" viewBox="0 0 200 200" version="1.1" xmlns="http://www.w3.org/2000/svg" xmlns:xlink="http://www.w3.org/1999/xlink">
    <g id="Website" stroke="none" stroke-width="1" fill="none" fill-rule="evenodd">
        <g id="logo-outline" fill="#9E9E9E">
            <path d="M100,180.009282 C73.5889709,180.009282 50.17103,167.208949 35.6001118,147.477963 L35.8469644,147.477963 L39.6643643,147.477963 C64.40473,147.477963 85.9646638,153.024257 97.2537643,161.230735 C97.8113868,161.833208 98.6070458,162.211968 99.4930705,162.211968 C100.387911,162.211968 101.187978,161.826563 101.747805,161.213015 C113.036905,153.017612 134.583615,147.477963 159.308552,147.477963 L164.022997,147.477963 L164.399888,147.477963 C149.82897,167.208949 126.411029,180.009282 100,180.009282 M100,19.9907178 C144.188828,19.9907178 180.00891,55.8112735 180.00891,100 C180.00891,110.631874 177.930499,120.776454 174.165996,130.057194 C173.592945,131.392823 172.032484,132.351907 170.189905,132.351907 L158.642932,132.351907 L158.642932,132.358552 C126.150952,132.606629 104.198699,154.373176 100.339422,158.486382 C100.20718,158.738889 99.947103,158.913872 99.6429453,158.913872 C99.4467856,158.913872 99.2726663,158.840778 99.1338117,158.725599 C99.1073632,158.714524 99.0809147,158.69902 99.0522622,158.66801 C95.6910989,155.044313 73.4346879,132.467085 40.2660676,132.354122 L40.2660676,132.351907 L29.8056867,132.351907 C28.013801,132.351907 26.4886043,131.443768 25.8802888,130.165728 C22.0871334,120.856193 19.9910899,110.673959 19.9910899,100 C19.9910899,55.8112735 55.8133763,19.9907178 100,19.9907178 M100,8 C49.1894134,8 8,49.1886996 8,100 C8,150.809096 49.1894134,192 100,192 C150.810587,192 192,150.809096 192,100 C192,49.1886996 150.810587,8 100,8" id="Fill-7"></path>
            <path d="M95.375,111.330556 L105.023438,111.330556 L105.023438,107.173611 C105.023438,95.0069444 123,93.2833333 123,76.5541667 C123,65.3 113.25,58 101.773438,58 C90.703125,58 84,64.4888889 84,64.4888889 L89.484375,71.4847222 C89.484375,71.4847222 94.6640625,67.2263889 101.0625,67.2263889 C107.765625,67.2263889 112.640625,71.5861111 112.640625,77.2638889 C112.640625,88.9236111 95.375,91.1541667 95.375,106.565278 L95.375,111.330556 Z M95.0703125,131 L105.328125,131 L105.328125,121.063889 L95.0703125,121.063889 L95.0703125,131 Z" id="?"></path>
        </g>
    </g>
</svg>
