<svg viewBox="0 0 16 16">
  <circle id="Oval" fill="#610C0D" cx="170" cy="62" r="60"></circle>
  <g id="Group-2" transform="translate(120.000000, 20.000000)" fill="#FFFFFF">
      <path d="M50,85.4833056 C35.6461798,85.4833056 22.9190381,78.5266026 15.0000607,67.8032405 L15.1342198,67.8032405 L17.2088936,67.8032405 C30.6547445,67.8032405 42.3720999,70.8175309 48.5074806,75.2775732 C48.8105363,75.6050041 49.2429597,75.8108522 49.7244948,75.8108522 C50.2108214,75.8108522 50.6456404,75.6013927 50.949894,75.2679429 C57.0852747,70.8139195 68.7954429,67.8032405 82.2329089,67.8032405 L84.7951071,67.8032405 L84.9999393,67.8032405 C77.0809619,78.5266026 64.3538202,85.4833056 50,85.4833056 M50,-1.48330556 C74.0156673,-1.48330556 93.4831033,17.9843877 93.4831033,42 C93.4831033,47.7781924 92.353532,53.291551 90.3076066,58.3354315 C89.9961659,59.0613169 89.1480891,59.582558 88.1466876,59.582558 L81.8711586,59.582558 L81.8711586,59.5861694 C64.2124741,59.7209939 52.2819016,71.5506391 50.1844687,73.7860773 C50.1125978,73.9233093 49.9712516,74.0184088 49.8059485,74.0184088 C49.69934,74.0184088 49.60471,73.9786837 49.5292455,73.9160866 C49.5148713,73.9100677 49.5004971,73.9016411 49.4849251,73.8847881 C47.6582059,71.9153875 35.5623304,59.6451551 17.5359063,59.5837618 L17.5359063,59.582558 L11.8509167,59.582558 C10.8770657,59.582558 10.0481545,59.0890041 9.71754826,58.3944172 C7.65605076,53.3348875 6.51689671,47.8010644 6.51689671,42 C6.51689671,17.9843877 25.9855306,-1.48330556 50,-1.48330556 M50,-8 C22.3855508,-8 0,14.3851628 0,42 C0,69.6136391 22.3855508,92 50,92 C77.6144492,92 100,69.6136391 100,42 C100,14.3851628 77.6144492,-8 50,-8" id="Fill-7"></path>
      <path d="M63.1339028,35.1869579 C62.1914224,32.1061763 62.7564866,26.6098947 63.7519748,23.871667 C63.9703674,23.2702702 64.2343467,22.694207 64.5428526,22.1434774 C64.7177787,21.8615038 64.8121327,21.5233558 64.7930499,21.1631787 C64.7432225,20.2577792 63.9915705,19.5638598 63.1158801,19.6156284 C62.9059688,19.6288459 62.7087795,19.6828174 62.5306729,19.7698327 C62.5264323,19.7654269 62.5221917,19.761021 62.517951,19.7566152 C61.1047606,20.4890856 59.6502239,21.5773273 58.5275167,22.694207 C58.9579408,24.9830394 60.5174331,32.0081465 63.1339028,35.1869579 L63.1339028,35.1869579 Z" id="Fill-1"></path>
      <path d="M58.4576581,52.1431279 C57.9296995,57.2296667 53.5819919,60.9195552 48.7466117,60.3831445 C44.0903982,59.8676616 40.8706986,55.5631588 40.8113298,50.7354629 C40.8113298,50.7652023 40.8113298,50.7321585 40.8113298,50.7321585 L40.8113298,50.7354629 L40.8113298,50.7035206 C40.6258022,40.5745013 47.0482387,30.3573653 52.602406,28.6633209 C52.6045263,28.6666253 52.6066466,28.6688282 52.6087669,28.6721326 C52.716903,28.6390888 52.8335204,28.6269728 52.9533183,28.6401903 C53.4526526,28.6952633 53.8131063,29.1666878 53.7590383,29.6920839 C53.7378351,29.9013611 53.6530225,30.0864063 53.528984,30.2306975 C53.3042305,30.5181783 53.1028005,30.8232825 52.9236338,31.148213 C50.9146346,34.8050577 52.374472,39.9973367 56.25465,44.9594106 L56.2557101,44.9605121 C57.8692705,46.8451088 58.7396601,49.4181177 58.4576581,52.1431279 M62.3198133,37.2502973 L62.3187532,37.2480944 C56.7645859,27.8052842 55.4457495,18.5992877 59.7690734,12.901439 C60.1517904,12.3958692 60.5726731,11.9288505 61.0264207,11.4981799 C61.2755578,11.2844968 61.4642659,10.9915087 61.5501387,10.6423461 C61.7664109,9.76338162 61.2522343,8.8689967 60.4009275,8.64540047 C60.1973772,8.59142897 59.9938269,8.5826173 59.7976977,8.60905232 C59.7955774,8.60464648 59.793457,8.59913919 59.7902766,8.59363189 C49.7951079,10.0354421 36.3226212,25.7444539 34.2913587,43.0164365 C34.287118,43.0505817 34.2849977,43.0682051 34.2839376,43.0803211 C33.2693665,51.301613 37.8354666,59.4480056 45.761207,61.5308651 C53.9954535,63.694131 62.3664603,58.5470119 64.459212,50.0338334 C65.580859,45.4726906 64.6712436,40.8718953 62.3198133,37.2502973" id="Fill-5"></path>
  </g>
</svg>
