<svg role="img" aria-label="Patreon" viewBox="0 0 17 17">
  <path d="M2.78094858,16.1524034 L2.78094858,12.0564521 L2.78094858,8.59366914 C2.78094858,5.385375 5.37731449,2.78422841 8.57971019,2.78422841 C11.782107,2.78422841 14.3784718,5.385375 14.3784718,8.59366914 C14.3784718,11.7117261 11.9258658,14.2554496 8.84820366,14.3961232 C7.870339,14.3881036 7.03665157,14.2291097 6.67148873,14.0039947 L6.67148873,11.5071229 C7.21648166,11.8646083 7.86832356,12.0730455 8.56837767,12.0730455 C10.4831501,12.0730455 12.035256,10.5180812 12.035256,8.5997825 C12.035256,6.6814838 10.4831501,5.12564612 8.56837767,5.12564612 C6.65360525,5.12564612 5.1014993,6.6814838 5.1014993,8.5997825 L5.1014993,16.1524034 L8.24925869,16.1524034 C8.24925869,16.1524034 16.1767031,16.3114217 16.1767031,8.58010542 C16.1767031,0.848789103 8.53532705,0.96394718 8.53532705,0.96394718 C8.53532705,0.96394718 0.96897016,0.90820474 0.96897016,8.53030407 L0.96897016,16.1524034 L2.78094858,16.1524034 Z"></path>
</svg>
